# xmcd
#
# Track frame offsets: 
#        150
#        22237
#        40805
#        60377
#        79307
#        99642
#        120000
#        136422
#        153647
#        182402
#        210917
#        232927
#
# Disc length: 3441 seconds
#
# Revision: 1
# Processed by: cddbd v1.5.2PL0 Copyright (c) Steve Scherf et al.
# Submitted via: ExactAudioCopyFreeDBPlugin 1.0
#
DISCID=900d6f0c
DTITLE=德永英明 - Ballade of Ballade Disc1
DYEAR=1997
DGENRE=J-Pop
TTITLE0=最后的学园祭
TTITLE1=9月的陌生人
TTITLE2=心中的情歌
TTITLE3=BIRDS
TTITLE4=再见的水彩画
TTITLE5=永远的光辉
TTITLE6=为了叹息的停留
TTITLE7=风之Eolia
TTITLE8=Melody-永远的锁匙
TTITLE9=最后的藉口
TTITLE10=恋人
TTITLE11=君之蓝
EXTD=
EXTT0=
EXTT1=
EXTT2=
EXTT3=
EXTT4=
EXTT5=
EXTT6=
EXTT7=
EXTT8=
EXTT9=
EXTT10=
EXTT11=
PLAYORDER=
